# xmcd CD database file
#
# Track frame offsets:
#	150
#	15284
#	37775
#	53571
#	69878
#	98271
#	116064
#	129980
#	152617
#	172177
#	187102
#	209788
#	230646
#	252192
#	272484
#
# Disc length: 3939 seconds
#
# Revision: 1
# Processed by: cddbd v1.5.1PL2 Copyright (c) Steve Scherf et al.
# Submitted via: CDex 1.51
#
DISCID=bf0f610f
DTITLE=Various Artist - KBCO Studio C Select 3
DYEAR=2000
DGENRE=Blues
TTITLE0=Leftover Salmon - Alfafas
TTITLE1=Keb Mo - Henry
TTITLE2=Kris Krsitoferson - Me and Bobby McGee
TTITLE3=Lowen and Navarro - Walking on a wire
TTITLE4=New radicals - You get what you give
TTITLE5=Johnny Lang - Breaking me
TTITLE6=Keb Mo - Every morning
TTITLE7=Kenny Wayne Sheppard - Blue on black
TTITLE8=Little feat - Hate to lose your lovin'
TTITLE9=Keb Mo - Thats not love
TTITLE10=Luka Bloom - Diamond Mountain
TTITLE11=Marc Cohn - Waling in Memphis
TTITLE12=Magic Dick and Jay Gelis - Nine below zero
TTITLE13=Paula Cole - Happy homes
TTITLE14=John Hiatt - Buffalo river home
EXTD=YEAR: 2000
EXTT0=
EXTT1=
EXTT2=
EXTT3=
EXTT4=
EXTT5=
EXTT6=
EXTT7=
EXTT8=
EXTT9=
EXTT10=
EXTT11=
EXTT12=
EXTT13=
EXTT14=
PLAYORDER=
